<svg xmlns="http://www.w3.org/2000/svg" viewBox="0 0 363.6 169.8"><style>.st0{fill:#9B8723;} .st1{fill:#687254;} .st2{fill:#FFFFFF;stroke:#7F6662;stroke-width:3;stroke-miterlimit:10;} .st3{fill:#7F7B6B;} .st4{fill:#5B3734;} .st5{fill:#BC6A19;} .st6{fill:#302828;} .st7{fill:#7F6662;}</style><g id="interior"><path class="st0" d="M54.2 106.5c-1 3-8 6-12 8s-5 6 0 6 37-1 29 3-30 7-7 6 32-13 35-3 3 12 4 15-36.4 30.9-17 28c20-3 25-8 27-11s-6-6 3-15 15-13 15-13 14-4 16-3 19-6 14 0 37 1 37 1l-27-2 24-5s30 0 33-2 13-9 8-9-15-5-15-5 16-24 6-12 0 12-14 16-20 6-20 6-8-2 4-8 20-12 20-12-4 1-3-2 0-5 5-8 4-4 5-5 2-7 0-9-7 0-27 5-30 11-26 7-2-7-1-10-1 5-7 10-10 4-12-3 3-17-7-5-10 17-16 17-45-20-28-12 34 17 22 14-15-5-24-7-27-1-11 0 21 5 21 5-38-4-40-9-1-17 0-20 1-27 0-6 9 25-3 23-38-27-27-17 18 18 14 17-6-2-16-5-8-2-3 5 7 2-9 7-34 8-18 6 26-5 25-3-15 7-16 8 21 4 20 4-18 3-18 3 18 1 19 2 19-4 18-1z"/><path class="st1" d="M106.7 121c1.3-1.1 2.8-1.9 4.3-2.6l2.4-.9c.8-.3 1.5-.8 2.2-1.2 1.4-.9 2.9-1.7 4.4-2.5 1.5-.7 3.1-1.3 4.7-1.8v.1c-1.4 1-2.8 1.9-4.3 2.7-1.5.7-3 1.4-4.6 2-.8.3-1.6.6-2.3 1-.7.4-1.4.9-2.1 1.4-1.4.8-3 1.4-4.7 1.8zM136.9 108.4c3.4.1 6.7.6 10 1.3 1.6.4 3.3.8 4.9 1.3l2.4.8 2.4.9v.1l-9.8-2.1-9.9-2.3zM114.7 111c1.3-1.1 2.8-1.9 4.3-2.6l2.4-.9c.8-.3 1.5-.8 2.2-1.2 1.4-.9 2.9-1.7 4.4-2.5 1.5-.7 3.1-1.3 4.7-1.8v.1c-1.4 1-2.8 1.9-4.3 2.7-1.5.7-3 1.4-4.6 2-.8.3-1.6.6-2.3 1-.7.4-1.4.9-2.1 1.4-1.4.8-3 1.4-4.7 1.8zM49.7 110c1.3-1.1 2.8-1.9 4.3-2.6l2.4-.9c.8-.3 1.5-.8 2.2-1.2 1.4-.9 2.9-1.7 4.4-2.5 1.5-.7 3.1-1.3 4.7-1.8v.1c-1.4 1-2.8 1.9-4.3 2.7-1.5.7-3 1.4-4.6 2-.8.3-1.6.6-2.3 1-.7.4-1.4.9-2.1 1.4-1.4.8-3 1.4-4.7 1.8zM43.7 96c1.3-1.1 2.8-1.9 4.3-2.6l2.4-.9c.8-.3 1.5-.8 2.2-1.2 1.4-.9 2.9-1.7 4.4-2.5 1.5-.7 3.1-1.3 4.7-1.8v.1c-1.4 1-2.8 1.9-4.3 2.7-1.5.7-3 1.4-4.6 2-.8.3-1.6.6-2.3 1-.7.4-1.4.9-2.1 1.4-1.4.8-3 1.4-4.7 1.8zM70.7 107c1.3-1.1 2.8-1.9 4.3-2.6l2.4-.9c.8-.3 1.5-.8 2.2-1.2 1.4-.9 2.9-1.7 4.4-2.5 1.5-.7 3.1-1.3 4.7-1.8v.1c-1.4 1-2.8 1.9-4.3 2.7-1.5.7-3 1.4-4.6 2-.8.3-1.6.6-2.3 1-.7.4-1.4.9-2.1 1.4-1.4.8-3 1.4-4.7 1.8zM110.7 135c1.3-1.1 2.8-1.9 4.3-2.6l2.4-.9c.8-.3 1.5-.8 2.2-1.2 1.4-.9 2.9-1.7 4.4-2.5 1.5-.7 3.1-1.3 4.7-1.8v.1c-1.4 1-2.8 1.9-4.3 2.7-1.5.7-3 1.4-4.6 2-.8.3-1.6.6-2.3 1-.7.4-1.4.9-2.1 1.4-1.4.8-3 1.4-4.7 1.8zM163.7 114c1.3-1.1 2.8-1.9 4.3-2.6l2.4-.9c.8-.3 1.5-.8 2.2-1.2 1.4-.9 2.9-1.7 4.4-2.5 1.5-.7 3.1-1.3 4.7-1.8v.1c-1.4 1-2.8 1.9-4.3 2.7-1.5.7-3 1.4-4.6 2-.8.3-1.6.6-2.3 1-.7.4-1.4.9-2.1 1.4-1.4.8-3 1.4-4.7 1.8zM103.1 120.1c-1.2-1.2-2.2-2.6-3-4.1-.4-.7-.7-1.5-1.1-2.3-.4-.7-.9-1.4-1.4-2.1-1.1-1.3-2-2.7-2.9-4.1-.9-1.4-1.7-2.9-2.3-4.5l.1-.1c1.2 1.2 2.2 2.6 3.1 4 .9 1.4 1.7 2.9 2.5 4.4.4.8.8 1.5 1.3 2.2.5.7 1.1 1.3 1.6 2 .7 1.4 1.6 2.9 2.1 4.6z"/><path class="st2" d="M281.7 8s-29 1-35 17-25 41-11 62 21.5 35.5 30.5 34.5 27-2 35-3 14-7 18-6 18-6 24-5 23-6 18-17-12-19-11-26 1-15 0-18-23-26-43-32S281.7 8 281.7 8z"/><path class="st3" d="M241.2 66.5c.9.2 1.9.1 2.9.1l2.9-.1 5.8-.2 11.7-.5 23.3-1.1c7.8-.4 15.5-.7 23.3-1.3 3.9-.1 7.6-1.4 11.2-2.7 3.7-1.3 7.3-2.8 10.9-4.3-3.5 1.7-7.1 3.3-10.7 4.7-1.8.7-3.7 1.4-5.5 1.9-.9.3-1.9.5-2.9.7-1 .2-2 .2-2.9.3-7.8.7-15.5 1.1-23.3 1.5-7.8.3-15.6.7-23.3.9-3.9.1-7.8.2-11.7.2h-8.7c-1 .2-2 .2-3-.1z"/><g id="tiny_tree"><path class="st1" d="M305.5 27.7c-.9.9-6 2.6-6 5.2s-1.7 8.6-1.7 8.6l5.2 3.4s-.9 0-1.7 1.7c-.9 1.7 0 2.6 1.7 3.4 1.7.9 2.6 5.2 2.6 5.2s6 3.4 6.9 0c.9-3.4-.9-7.7 2.6-5.2 3.4 2.6 4.3 5.2 6 5.2 1.7 0-1.7-1.7.9-3.4s3.4 1.7 3.4-1.7-4.3-5.2 1.7-5.2 5.2 0 3.4-2.6c-1.7-2.6-4.3 0-3.4-5.2.9-5.2 7.7-11.2 0-6.9-7.7 4.3-6 8.6-7.7 4.3-1.7-4.3 0-5.2-2.6-6.9s-3.4-1.7-4.3-2.6c-.9-.9-.9-.9-2.6 0-1.8 1-4.4 2.7-4.4 2.7z"/><path class="st4" d="M313.3 46.6c1.5 2.9 2.9 6 4 9.1.6 1.6 1.3 3.1 1.4 4.9.1.9.1 1.7 0 2.6 0 .4-.2.9-.3 1.3-.2.4-.4.9-.9 1.1l-.1-.1c.3-.8.1-1.5-.1-2.3-.2-.8-.4-1.5-.6-2.3-.4-1.5-.6-3.2-1-4.8-.4-1.6-.8-3.2-1.3-4.8-.4-1.6-.9-3.2-1.4-4.8l.3.1z"/></g><path class="st4" d="M351 53.5S340.8 58 336.8 65s2 9 4 12 18.8 10 18.8 10l-18.3-3.5s9 10 13 13-11-4-14-9-11-18-11-18-18 17-17 22-5 2-4 1 13-28.1 17-32.6 14-11.4 14-11.4l7-3 3.1-.5c-.1 0 1.3 5.5 1.6 8.5z"/><path class="st3" d="M269.3 48.5c-1.1.7-2.1 1.3-3.1 2s-1.9 1.5-2.7 2.3c-.8.9-1.5 1.8-1.7 2.9-.2 1.2-.4 2.4-.4 3.5s.3 2.1 1 2.9c.6.9 1.6 1.4 2.6 1.9 2.1.9 4.5 1.5 6.7 1.3.5-.1 1.1-.1 1.6-.3.4-.1 1-.4 1.5-.7.5-.3 1.1-.5 1.5-.8.5-.3.9-.7 1-.9v-.5l.1-.3.4-.9c.2-.6.4-1.1.6-1.6.3-1.1.3-2.1-.1-3.1-.1-.2-.2-.4-.4-.7-.2-.2-.3-.4-.5-.6l-1.2-1.5c-.7-1-1.3-2.2-1.8-3.2-.3-.5-.6-.9-1-1.1-.1-.1-.2-.1-.3-.1h-1.3c-1.2-.1-2.4-.1-3.7-.2v-.2c.5-.2.9-.1 1.2-.1zm-.1.1h-1v-.1H272.8c.3 0 .6 0 .9.1.6.2 1 .7 1.3 1.2.6 1.1 1.2 2.2 1.9 3.1.4.5.7 1 1.2 1.4.2.2.4.5.6.7.2.3.4.5.5.8.5 1.1.5 2.5.2 3.6-.2.6-.4 1.2-.6 1.7l-.3.8c0 .1-.1.3-.1.4 0 .1 0 .3-.1.5-.3.6-.8.9-1.3 1.3-.5.3-1.1.6-1.6.9-.5.3-1.1.6-1.7.8-.6.2-1.2.3-1.8.4-2.5.2-4.9-.4-7.2-1.4-1.1-.5-2.2-1.2-3-2.2-.8-1-1.1-2.3-1.1-3.5 0-1.2.3-2.4.5-3.6.3-1.2 1.1-2.2 1.9-3.1.9-.9 1.9-1.6 2.9-2.3 1.1-.5 2.2-1.2 3.3-1.5z" id="bottom"/><path class="st3" d="M263.3 43.5c0 .8-.2 1.6-.2 2.4 0 .8.8 1.3 1.5 1.6.7.3 1.5.5 2.3.6.7.1 1.5 0 2.4-.1l2.4-.2c.8-.1 1.7-.1 2.3-.2.7-.1 1.3-.5 1.4-.8.1-.1.1-1.3 0-1.9 0-.6-.4-1.2-.8-2-.4-.7-.6-1.6-.9-2.2-.3-1-2.2-.8-3.7-.7-.8.1-1.6.1-2.5 0-.4-.1-.9-.2-1.3-.5l-.4-.4c-.1-.1-.2-.1-.3 0-.3.2-.5.6-.8.9-.3.3-.6.5-.8.9-.4 1-.6 1.9-.6 2.6zm-.1 0c0-.8.2-1.6.5-2.4.2-.4.5-.7.7-1 .3-.3.5-.7.7-1 .1-.2.4-.2.6-.1.2.1.3.3.5.4.3.3.7.3 1.1.4.8.1 1.6-.1 2.4-.2l2.4-.3c.4 0 .8 0 1.2.2.4.2.7.5.9.8.4.7.7 1.5 1.1 2.2.3.7.8 1.4.9 2.3V46c0 .4 0 .8-.2 1.2-.4.8-1.3 1.1-2.1 1.2-.8.1-1.6 0-2.4.1h-2.4c-.8 0-1.6 0-2.4-.1-.8-.1-1.6-.4-2.3-.8-.4-.2-.7-.4-1-.7-.3-.3-.5-.7-.5-1.1.1-.7.3-1.5.3-2.3z" id="middle"/><path class="st3" d="M269.2 32.6c-.5 0-1.1.1-1.6.3-.5.2-.9.5-1.1 1-.1.2-.1.5-.1.7v.8c0 .6 0 1.1.1 1.6 0 .5.1 1.1.3 1.4.1.2.2.3.3.4h.3c.1 0 .3-.1.5-.1l.9-.3c.6-.1 1.2-.2 1.8-.1.6 0 1.2.1 1.7.2l.7.1h.4v-.1c0-.2.1-.5.1-.8 0-.5.1-1.1 0-1.6 0-1-.5-2-1.4-2.5-.8-.4-1.8-.9-2.9-1zm0-.1c1.1.1 2.1.6 3.1 1 .5.3.9.6 1.2 1.1.3.5.5 1 .6 1.6.1.5.1 1.1.1 1.6v.8c0 .3-.1.6-.4.8-.6.3-1.1.1-1.7.1-.5-.1-1.1-.1-1.6-.1s-1.1 0-1.6.1-1 .3-1.6.3c-.3 0-.6-.1-.8-.3-.2-.2-.4-.5-.4-.7-.2-.5-.1-1.1-.1-1.7 0-.5.1-1.1.1-1.6.1-.5 0-1.1.2-1.6.3-.5.8-.9 1.3-1 .5-.3 1.1-.4 1.6-.4z" id="head"/><path id="carrot" class="st5" d="M270.2 36.3l7.5-1.3-6.8 2.5z"/></g><g id="groundhog"><path id="body" class="st4" d="M90.2 38.5s-13 17-6 35 17 29 29 26 21-5 22-6 8 2 8 2 18 6 22 1l6-1s1 0 1 1 0 6 7 8 34-7 41-38c0 0 9-5 5-14 0 0-3 3-6 3 0 0 2-3-4-14s2-11-23-31-65.5-8.1-87 7c-10 7-15 21-15 21z"/><path class="st6" d="M188.7 79c1.1-1.6 2.3-3.1 3.2-4.7.5-.8.9-1.6 1.3-2.5.3-.9.6-1.8.5-2.8.4.9.3 2 0 2.9-.2 1-.7 1.9-1.2 2.7-.9 1.8-2.2 3.3-3.8 4.4z"/><path class="st6" d="M188.2 79.5c.5-.4 1-.9 1.4-1.4.5-.4 1-.8 1.4-1.3.9-.9 1.6-2 2.2-3.1.6-1.1 1.1-2.3 1.5-3.6.2-.6.4-1.2.5-1.9l.9-1.8c.1.7 0 1.4.1 2.1-.2.6-.4 1.3-.6 1.9-.4 1.3-.9 2.5-1.6 3.7-.7 1.2-1.4 2.3-2.4 3.3-.5.5-1 1-1.5 1.4-.5.5-1.2.7-1.9.7z"/><path class="st6" d="M189.2 79.5c1.3-1.7 2.6-3.1 4-4.5.7-.7 1.3-1.4 2-2.2l2-2.3h.1c-.8 1.9-2 3.6-3.4 5.1-1.4 1.5-3 2.8-4.7 3.9zM180.3 46.6c-.8 2.4-1.5 4.8-2.1 7.3-.6 2.4-1.2 4.9-1.6 7.4-.2 1.2-.3 2.5-.2 3.7.1.6.3 1.2.4 1.9.1.6.2 1.3.2 1.9 0 1.3-.2 2.6-.7 3.9-.1.3-.3.6-.5.9-.3.3-.4.5-.5.7-.2.5-.4 1.1-.4 1.7-.1.6-.1 1.2-.1 1.8v1c0 .4-.1.7-.1 1-.2 1.3-.4 2.5-.6 3.7-.3 2.5-.2 5-.2 7.5l-.1 3.8v1c-.1.4-.1.7-.2 1l-.3 1.8c-.1.6 0 1.2.1 1.8.1.6.3 1.2.7 1.6.7 1 1.9 1.5 3.1 1.7v.1c-1.2-.1-2.6-.5-3.5-1.6-.5-.5-.7-1.1-.9-1.8-.1-.6-.2-1.3-.2-2s.1-1.3.2-1.9c0-.3.1-.6.1-.9v-.9l-.1-3.8v-3.8c0-1.3.1-2.6.3-3.8.2-1.3.4-2.5.7-3.8.1-.3.1-.6.1-.9v-.9c0-.6.1-1.3.2-1.9.1-.6.2-1.3.6-1.9.2-.3.5-.6.6-.8.2-.2.3-.5.4-.7.5-1.1.7-2.3.7-3.6 0-.6 0-1.2-.1-1.8-.1-.6-.3-1.2-.3-1.9-.1-1.3.1-2.6.3-3.9.4-2.5 1.1-5 1.8-7.4.5-2.5 1.3-4.9 2.2-7.2zM127.3 36.6c-1 5.6-1.3 11.3-1 16.9.4 5.6 1.5 11.3 4.3 16.1.7 1.2 1.5 2.3 2.5 3.3.9 1.1 1.9 2.1 2.8 3.1 1.9 2.1 3.9 4.1 5.7 6.4.4.6.8 1.2 1.2 1.9.3.7.6 1.5.5 2.3-.1.8-.6 1.6-1.1 2.1-.6.5-1.2.9-1.8 1.2-2.6 1.3-5.4 2-8.1 2.7v-.1c1.3-.4 2.7-.9 4-1.4 1.3-.5 2.6-1 3.8-1.8 1.2-.7 2.4-1.6 2.4-2.8.1-1.2-.8-2.4-1.6-3.5-.9-1.1-1.8-2.1-2.8-3.2l-2.9-3.1c-1-1.1-1.9-2.1-2.8-3.2-.9-1.1-1.8-2.3-2.5-3.5-2.9-5-3.9-10.8-4.1-16.5-.2-5.7.3-11.4 1.5-16.9z"/><path class="st6" d="M117.8 45c.8 2.5 1.8 4.9 2.9 7.3 1.1 2.4 2.3 4.7 3.7 6.9 1.4 2.2 3.1 4.2 4.4 6.5 1.3 2.3 2.5 4.7 3 7.3h-.1c-1-2.4-2.4-4.6-3.8-6.8s-2.9-4.3-4.2-6.6c-2.6-4.6-4.5-9.5-5.9-14.6zM177.2 102.6c-.6-1.1-1-2.3-1.2-3.5-.1-.6-.2-1.3 0-2 .2-.6.6-1.3 1.2-1.6l.1.1c-.2.6-.3 1.1-.3 1.7 0 .5-.2 1.1-.2 1.7 0 1.1.2 2.3.4 3.6z"/><path id="rightear" class="st7" d="M195.2 45.5s3-9 12-9 9 8 6 13-6 7-9 7 3-3 3-3l-4 1s6-4 4-5-1 1-3 1-2 0 0-2 4-4 1-2-4 6-3 3 1-5 1-6-2-3-2 0-1 4-1 4v-3s-1-4-1-1 1 3 0 4l-1 1v-3h-3z"/><path id="leftear" class="st7" d="M219.7 55s0 3 1 3 1 0 0 2 1 0 1 0l-1 3h1l-2 2v1s11-4 5-14c0 0-.5 2.5-5 3z"/><path id="foot" class="st7" d="M141.7 87s8.6-.5 14.4-1.2c2.1-.2 3.8-.5 4.6-.8 3-1 5-1 2 1s-5 2-4 3 6-1 6-1l-5 4s3-3 5-2 4-2 0 2-3 4-1 3 7-1 5 0-14 7.9-31.5-1.5 4.5-6.5 4.5-6.5z"/></g></svg>